<?xml version="1.0" encoding="UTF-8" standalone="no"?>
<!-- Created with Inkscape (http://www.inkscape.org/) -->

<svg
   width="1020.2012"
   height="371.89713"
   viewBox="0 0 1020.2012 371.89713"
   version="1.1"
   id="svg1"
   xml:space="preserve"
   inkscape:version="1.4.2 (f4327f4, 2025-05-13)"
   sodipodi:docname="logo.svg"
   inkscape:export-filename="logo.png"
   inkscape:export-xdpi="96"
   inkscape:export-ydpi="96"
   xmlns:inkscape="http://www.inkscape.org/namespaces/inkscape"
   xmlns:sodipodi="http://sodipodi.sourceforge.net/DTD/sodipodi-0.dtd"
   xmlns="http://www.w3.org/2000/svg"
   xmlns:svg="http://www.w3.org/2000/svg"><sodipodi:namedview
     id="namedview1"
     pagecolor="#ffffff"
     bordercolor="#999999"
     borderopacity="1"
     inkscape:showpageshadow="2"
     inkscape:pageopacity="0"
     inkscape:pagecheckerboard="0"
     inkscape:deskcolor="#d1d1d1"
     inkscape:document-units="px"
     inkscape:zoom="0.91699218"
     inkscape:cx="22.900959"
     inkscape:cy="-59.43344"
     inkscape:window-width="2994"
     inkscape:window-height="1695"
     inkscape:window-x="285"
     inkscape:window-y="305"
     inkscape:window-maximized="0"
     inkscape:current-layer="g1"
     inkscape:clip-to-page="false" /><defs
     id="defs1" /><g
     inkscape:label="Layer 1"
     inkscape:groupmode="layer"
     id="layer1"
     transform="translate(-3.7308961,-5.8816935)"><g
       id="g1"
       transform="matrix(0.4813525,0,0,0.4813525,-295.17276,-403.24174)"><path
         d="m 2130.7294,1194.3193 -3.6609,-0.4082 -3.3106,-13.4814 -3.3105,-13.4814 -5.5286,-1.516 c -7.7071,-2.1133 -17.367,-5.4824 -18.3604,-6.4035 -0.8456,-0.7841 -1.6076,-11.8432 -1.9985,-29.0076 l -0.2164,-9.5 6.5234,3.1856 c 13.9182,6.7967 34.1497,10.0817 51.329,8.3342 14.5806,-1.4831 24.4346,-4.1697 36.1944,-9.868 35.7049,-17.3009 58.2331,-51.0728 60.1688,-90.1986 0.7657,-15.4775 -0.6057,-25.8395 -5.2878,-39.9532 -5.8292,-17.57128 -12.8238,-28.6048 -27.303,-43.06901 -16.737,-16.71956 -37.4314,-26.23815 -63.3358,-29.1319 -23.3725,-2.61091 -50.5892,4.63956 -70.351,18.74134 -13.32,9.5049 -27.4673,26.0051 -34.2614,39.95959 -9.9161,20.36648 -13.143,40.63128 -10.0603,63.17768 2.2382,16.3696 12.1936,39.1904 22.6003,51.8069 2.9316,3.5542 5.3302,6.6428 5.3302,6.8638 0,0.2209 -1.2713,0.6559 -2.8252,0.9666 -3.1668,0.6334 -12.7539,8.7834 -13.6487,11.6029 -0.6189,1.9497 -6.6768,3.3319 -13.7561,3.1386 -2.0514,-0.056 -8.8014,1.2577 -15,2.9193 -15.0015,4.0215 -15.668,3.9783 -18.9408,-1.2276 -3.1135,-4.9525 -10.8373,-20.2735 -10.8117,-21.4461 0.01,-0.4412 4.1024,-5.0215 9.095,-10.1786 10.3014,-10.6408 9.8049,-8.2477 5.2933,-25.5165 -3.2683,-12.5094 -2.5377,-11.8663 -17.8397,-15.7041 -4.7867,-1.2006 -9.3474,-2.827 -10.1347,-3.6143 -1.104,-1.104 -1.4279,-4.56 -1.4161,-15.11 0.01,-7.5232 0.3776,-14.2493 0.8203,-14.9469 0.4428,-0.6975 2.1234,-1.6691 3.7347,-2.1591 1.6113,-0.49 6.9656,-2.0834 11.8983,-3.5407 4.9327,-1.4574 9.4883,-3.0811 10.1235,-3.6083 0.6352,-0.5272 1.4468,-3.1593 1.8036,-5.8492 0.3569,-2.6898 1.5388,-7.4774 2.6265,-10.6391 3.1654,-9.20031 2.9945,-9.68815 -7.0222,-20.04232 -4.95,-5.11676 -9,-9.78463 -9,-10.37304 0,-1.661 6.8551,-14.91847 10.7959,-20.87885 3.394,-5.13338 3.6939,-5.33536 7.1236,-4.79887 3.0222,0.47273 18.1704,4.50559 21.6621,5.76705 0.5949,0.21491 5.8596,-4.16372 11.6994,-9.73031 l 10.6177,-10.12105 -3.4336,-13.24981 c -1.8886,-7.2874 -3.1622,-13.68917 -2.8303,-14.22616 0.867,-1.40287 12.7868,-8.95702 20.1323,-12.75878 0,0 3.9394,-3.58243 6.2672,-3.24366 4.8419,0.70467 10.5723,10.18293 10.5723,10.18293 7.7177,7.43349 11.0206,10.00122 12.2328,9.50991 0.9133,-0.37016 6.5946,-1.9316 12.6251,-3.46986 8.1014,-2.06651 11.1514,-3.28067 11.6803,-4.64965 0.3936,-1.01905 2.3184,-7.08685 4.2772,-13.48401 2.9706,-9.70147 3.9361,-11.73161 5.8197,-12.23635 2.9191,-0.7822 16.8181,-0.78816 23.2929,-0.01 l 5.0345,0.60509 3.3658,12.13622 c 1.8511,6.67492 3.7309,12.86206 4.1772,13.74919 0.4464,0.88713 2.4848,1.88449 4.5298,2.21635 2.045,0.33186 7.955,1.80535 13.1332,3.27442 l 9.415,2.67103 10.2618,-10.2268 10.2617,-10.2268 5.3932,2.71873 c 4.3316,2.18357 15.696,9.24348 20.2763,12.59624 0.4857,0.35554 -0.5869,6.75206 -2.3836,14.21449 l -3.2668,13.56806 10.3323,10.09661 10.3323,10.0966 8.0513,-2.20924 c 4.4283,-1.21508 10.4178,-2.77557 13.31,-3.46775 l 5.2586,-1.25851 4.4866,6.93553 c 4.7205,7.29711 8.7754,14.89644 9.9177,18.58655 0.5603,1.80995 -0.919,3.91483 -8.3705,11.91042 -4.978,5.34156 -9.051,10.28434 -9.051,10.98394 0,2.31311 6.0755,24.88266 6.9275,25.73466 0.4595,0.4595 5.0513,1.8857 10.204,3.1694 14.0158,3.4916 14.4815,3.7418 15.2138,8.1737 0.8099,4.9022 0.818,19.708 0.013,24.576 -0.5587,3.3803 -1.022,3.8508 -4.739,4.814 -2.2658,0.5871 -7.9447,2.2761 -12.6197,3.7534 l -8.5,2.686 -1.2827,4.5 c -0.7055,2.475 -2.4939,8.4884 -3.9743,13.3631 l -2.6915,8.863 9.7243,9.1867 c 5.3483,5.0527 9.7242,9.7725 9.7242,10.4885 0,1.8192 -10.7828,21.7346 -13.4409,24.8249 l -2.187,2.5425 -10.436,-2.7786 c -17.3045,-4.6073 -15.2071,-5.094 -26.3643,6.1177 -8.3993,8.4403 -9.6636,10.1416 -9.1719,12.3411 0.3137,1.4031 1.8918,7.3728 3.5069,13.2659 2.9047,10.5987 2.9159,10.7409 1.0371,13.1294 -1.9993,2.5417 -6.2859,4.8132 -19.4439,10.3036 l -8,3.3381 -5.0183,-5.2429 c -2.76,-2.8836 -6.1704,-6.6484 -7.5786,-8.3661 -3.9238,-4.7861 -6.0467,-5.5898 -10.5635,-3.9994 -2.1118,0.7435 -7.5002,2.1417 -11.9744,3.107 -4.4741,0.9652 -8.6572,2.0779 -9.2958,2.4726 -0.6386,0.3947 -2.5544,6.3033 -4.2574,13.1303 -1.703,6.8269 -3.4967,12.926 -3.986,13.5534 -0.8748,1.1217 -19.8286,1.5669 -27.9869,0.6573 z m -1434.33908,-2.6991 c -9.93947,-1.9193 -21.70616,-6.0641 -31.00001,-10.9195 -10.30885,-5.3857 -25.46226,-20.0164 -30.87356,-29.8086 -7.44467,-13.4717 -11.18957,-27.8431 -12.7198,-48.8135 -1.69278,-23.1981 -0.58143,-158.18083 1.38778,-168.55738 6.6424,-35.00145 19.1862,-55.18125 42.70558,-68.70246 13.59981,-7.81848 43.6143,-12.69836 66.17471,-10.75896 22.23747,1.91165 35.94034,6.03728 49.1436,14.79606 16.93602,11.23501 27.41668,27.25392 32.25238,49.29535 2.18768,9.97159 2.57029,14.72154 3.11084,38.62001 l 0.61636,27.24998 h -37.64894 -37.64894 l -0.0351,-21.74998 c -0.0436,-26.99876 -1.38826,-34.52735 -7.33983,-41.09501 -3.51634,-3.88034 -7.26641,-5.24967 -14.41782,-5.26463 -10.41585,-0.0218 -16.31235,3.32997 -19.56833,11.12329 -3.42469,8.19713 -3.76148,18.06277 -3.44749,100.98633 l 0.3086,81.5 2.29928,5.6897 c 1.30704,3.2343 3.77662,6.9868 5.72267,8.6954 8.53105,7.4904 23.3297,6.4822 29.74133,-2.0262 5.51069,-7.3129 6.09099,-10.9745 6.6866,-42.192 l 0.55012,-28.833 37.22432,-0.3123 37.22431,-0.3123 0.60862,3.2442 c 0.33473,1.7843 0.37168,15.3497 0.0821,30.1453 -0.9139,46.6942 -6.02634,65.0166 -23.25006,83.3255 -10.84808,11.5316 -23.44262,18.361 -42.80009,23.2085 -10.58421,2.6505 -44.30855,3.5481 -55.0892,1.4662 z m 401.99998,-0.047 c -11.9772,-1.8722 -18.8766,-4.1662 -30.7096,-10.2107 -19.168,-9.7913 -31.1678,-24.2902 -38.8064,-46.8882 -6.3244,-18.71 -6.3135,-18.5452 -6.7377,-101.9527 -0.2555,-50.2303 -0.011,-80.57748 0.7217,-89.49998 3.212,-39.1235 16.8755,-63.55533 44.032,-78.73421 14.7891,-8.26623 47.0989,-13.08551 69,-10.29196 20.4677,2.61072 32.2232,6.43874 45.5,14.81646 9.0087,5.68455 11.5377,8.05831 18.5062,17.37018 6.6276,8.85637 10.8854,18.43947 14.6674,33.01193 l 2.6803,10.3276 0.5731,51.99998 c 0.8687,78.836 0.5902,121.8236 -0.8457,130.5 -2.1978,13.2812 -5.1232,23.2893 -9.4999,32.5 -6.207,13.0629 -6.5137,13.3323 -16.5814,14.565 -30.1742,3.6945 -46.7377,10.931 -65.9904,28.8305 -5.4774,5.0925 -5.5058,5.1043 -12,5.0056 -3.5803,-0.054 -10.1096,-0.6617 -14.5096,-1.3495 z m 31.1883,-64.497 c 5.1809,-2.3522 9.6754,-8.3583 11.4664,-15.323 2.005,-7.7968 1.9695,-169.75119 -0.039,-177.73158 -2.3309,-9.26169 -6.3175,-14.9856 -11.9212,-17.11609 -3.609,-1.37215 -15.5982,-1.26355 -18.3803,0.1665 -4.5256,2.32622 -8.8901,7.45728 -10.5666,12.42232 -1.5335,4.54194 -1.728,13.27055 -2.0148,90.41515 -0.2197,59.0978 0.019,87.01 0.7762,90.6562 1.485,7.1528 6.0528,13.7825 11.2781,16.369 5.3946,2.6703 13.6977,2.7308 19.4011,0.1415 z m 190.9714,63.8978 c -15.3451,-2.5756 -33.0166,-10.9297 -45.3828,-21.4547 -8.1282,-6.9179 -16.7718,-21.1027 -21.2069,-34.8022 -6.3475,-19.6061 -6.7751,-27.2403 -6.564,-117.1955 0.1844,-78.61375 0.657,-86.23705 6.4111,-103.41194 8.1424,-24.30334 20.5033,-39.95712 39.0829,-49.49438 15.2747,-7.84079 30.5257,-10.95529 53.5,-10.92555 27.4363,0.0355 45.6673,4.75065 62.5147,16.1683 10.2034,6.91493 16.3943,14.27298 22.4061,26.63011 8.2575,16.97296 10.5615,30.76538 10.5716,63.28348 l 0.01,24.24998 h -37 -37 l -0.01,-18.24998 c -0.01,-20.67418 -1.289,-34.45604 -3.6298,-39.09031 -4.055,-8.02818 -9.1821,-11.03638 -18.862,-11.06681 -8.3283,-0.0262 -13.6704,2.46774 -17.3572,8.10299 -4.8094,7.35137 -5.0914,12.90216 -5.1589,101.54861 -0.07,91.9533 -0.2702,89.1077 6.8225,96.968 2.0315,2.2513 5.1416,4.6995 6.9115,5.4404 6.9257,2.8993 18.182,0.6026 24.0513,-4.9073 1.2481,-1.1717 3.2468,-5.0813 4.4415,-8.688 1.9788,-5.9735 2.2067,-9.0959 2.5593,-35.0576 l 0.387,-28.5 37.1715,0.1351 37.1715,0.1351 0.1073,20.8649 c 0.1572,30.5454 -0.9589,47.0357 -3.9502,58.3649 -2.6833,10.1624 -5.4548,17.5356 -6.2811,16.7094 -0.2787,-0.2787 -0.4975,-6.0649 -0.4863,-12.8581 0.031,-18.591 -3.2437,-25.8588 -14.0845,-31.261 -10.3141,-5.1398 -22.3899,-2.1054 -29.6581,7.4525 -2.8653,3.7679 -4.1827,4.6242 -8.5183,5.5367 -6.1589,1.2963 -12.3494,4.3682 -15.2618,7.5732 -4.6957,5.1674 -5.852,8.8764 -5.9621,19.1246 -0.098,9.1171 -0.304,10.0625 -3.0507,14 -1.6201,2.3225 -4.6711,7.8227 -6.7801,12.2227 -2.1089,4.4 -5.9134,11.4759 -8.4543,15.7241 l -4.6198,7.7241 -5,-0.092 c -2.75,-0.051 -7.1781,-0.4573 -9.8403,-0.9041 z m -473.59742,-43.3544 c 0.0342,-23.1539 -0.0783,-97.898 -0.25,-166.098 l -0.31226,-123.99998 38.2386,-0.26187 38.2386,-0.26187 0.015,134.18262 c 0.01,73.8005 0.1844,134.3516 0.3909,134.558 0.2064,0.2065 18.992,0.5317 41.7458,0.7229 l 41.37058,0.3475 v 31.3564 31.3563 l -79.74998,0.098 -79.75,0.098 z m 801.43772,41.4397 c -6.5944,-0.403 -10.1124,-1.1432 -13.1616,-2.7691 -7.2775,-3.8805 -18.7676,-8.0679 -26.9305,-9.8144 -4.3493,-0.9306 -9.2181,-1.9863 -10.8195,-2.346 -2.679,-0.6018 -3.1425,-1.4113 -5.8015,-10.1311 -2.2843,-7.4911 -41.6938,-126.7224 -43.5398,-131.7271 -1.8832,-5.1055 -2.2471,6.1901 -2.2471,69.75 v 71 h -2.893 c -1.5912,0 -6.2037,0.6494 -10.25,1.4431 -4.0464,0.7936 -13.432,2.4081 -20.857,3.5877 -7.425,1.1796 -19.4554,3.6802 -26.7342,5.557 -7.2787,1.8767 -13.4662,3.4122 -13.75,3.4122 -0.2837,0 -0.5158,-74.2347 -0.5158,-164.9661 V 857.08907 l 37.5,-0.0428 37.5,-0.0429 v 64.50893 c 0,41.1034 0.3527,64.50891 0.9721,64.50891 0.5346,0 1.7157,-2.5875 2.6246,-5.75 0.9089,-3.16248 2.6753,-8.44998 3.9253,-11.74998 1.25,-3.3 4.8595,-13.2 8.021,-22 3.1616,-8.8 8.657,-24.1 12.2121,-34 3.5551,-9.9 9.3909,-26.41008 12.9683,-36.68907 l 6.5046,-18.68906 38.886,-0.0869 c 21.3873,-0.0478 38.886,0.2972 38.886,0.76666 0,0.46946 -1.1752,3.74365 -2.6115,7.27597 -1.4363,3.53233 -6.5736,17.22241 -11.4161,30.42241 -4.8426,13.2 -12.6282,34.125 -17.3013,46.5 -4.6731,12.375 -11.8326,31.5 -15.9101,42.49998 l -7.4135,19.99998 3.3237,10.62 c 1.828,5.841 5.8466,17.541 8.9301,26 5.0422,13.8321 9.1252,25.5464 29.4104,84.38 3.2238,9.35 9.4803,27.3222 13.9034,39.9381 4.4231,12.616 7.9106,23.0696 7.7499,23.2302 -0.6286,0.6286 -22.6518,0.8896 -31.165,0.3694 z m 675.5,0.2315 c -0.825,-0.3152 -4.0875,-2.3214 -7.25,-4.4584 l -5.75,-3.8853 v -62.4158 -62.4158 l 3.4573,-1.6407 c 4.988,-2.3669 8.3803,-6.1423 9.2684,-10.3153 0.4259,-2.0008 0.7447,-11.2879 0.7086,-20.6379 -0.079,-20.3979 -0.7909,-22.5552 -8.5241,-25.8224 l -4.9102,-2.0745 v -58.72209 -58.72208 l -0.1623,-17.70769 c -0.071,-7.70802 135.7603,-14.14384 165.9987,10.92398 13.3959,11.1053 18.3439,24.35236 20.705,31.6248 4.1701,12.84423 4.8105,22.48439 4.8471,45 0.034,21.22841 -0.1117,23.04373 -2.5857,32.12098 -1.4422,5.2916 -3.8667,12.2666 -5.3877,15.5 -3.614,7.6824 -12.0233,15.8744 -21.2994,20.7489 l -7.3211,3.8471 7.3145,3.5381 c 9.3695,4.5321 16.5428,11.6343 20.8354,20.6287 5.6379,11.8132 5.982,16.2213 6.0206,77.1388 l 0.035,55.0227 -5.2825,1.2281 c -4.6509,1.0813 -5.9363,0.999 -10.75,-0.6879 -3.0071,-1.0538 -9.2112,-2.4867 -13.7868,-3.1844 -7.7335,-1.179 -8.4306,-1.4842 -9.9001,-4.3347 -2.4406,-4.7342 -8.8673,-10.2375 -13.996,-11.9851 -5.7652,-1.9644 -13.2722,-2.0311 -17.7556,-0.1578 l -3.4068,1.4234 -0.3111,-47.6734 -0.3111,-47.6735 -3,-6 c -2.6455,-5.2909 -3.687,-6.3433 -8.8127,-8.9052 -4.9081,-2.4531 -7.359,-2.9796 -15.75,-3.3837 l -9.9373,-0.4785 v 69.6337 c 0,66.5149 -0.083,69.7169 -1.8572,71.4909 -1.6047,1.6047 -3.5412,1.8625 -14.25,1.897 -6.816,0.022 -15.3178,0.5328 -18.8928,1.1353 -6.7293,1.1341 -25.3635,1.3867 -28,0.3797 z m 89.2773,-204.3293 c 5.5826,-1.5503 10.3049,-6.20745 12.4078,-12.23651 2.2757,-6.52456 2.5604,-33.72417 0.4209,-40.20337 -2.4664,-7.46883 -5.8821,-11.35602 -11.4249,-13.00207 -5.7937,-1.72054 -27.3098,-2.10896 -27.8478,-0.50273 -0.1833,0.54736 -0.2089,15.84736 -0.057,34 l 0.2764,33.00478 11.2236,-0.01 c 6.173,0 12.9234,-0.4776 15.0009,-1.0545 z m 159.2227,203.9504 c -2.2,-0.3353 -6.925,-1.966 -10.5,-3.6238 -5.1562,-2.391 -21.4071,-7.9754 -28.75,-9.8796 -0.9836,-0.255 -1.2899,-16.0464 -1.4374,-74.1055 -0.1481,-58.3226 -0.046,-225.12723 0.1478,-241.03138 l 0.04,-3.25 h 37.5 37.5 v 65.2 c 0,49.72815 0.2772,64.92278 1.1683,64.03168 0.6426,-0.6425 3.9833,-8.94504 7.4238,-18.44997 3.4405,-9.50494 8.1051,-22.23171 10.3657,-28.28171 2.2606,-6.05 6.0836,-16.625 8.4955,-23.5 16.775,-47.8155 21.4846,-60.15641 22.6761,-59.42001 0.498,0.30777 17.5476,0.51311 37.888,0.45631 32.5627,-0.0909 36.9826,0.0795 36.9826,1.42566 0,1.38373 -28.4938,78.72805 -37.9594,103.03804 -2.1415,5.5 -6.2042,16.26294 -9.0282,23.91768 -2.8239,7.6547 -5.7219,15.0797 -6.4399,16.5 -1.1848,2.3437 -0.6619,4.3845 5.6575,22.0823 12.985,36.3655 42.5066,121.1912 50.9325,146.3466 3.2877,9.8156 5.6838,18.1406 5.3246,18.5 -0.3592,0.3594 -18.2279,0.6534 -39.7081,0.6534 h -39.055 l -10.2397,-31 c -5.6319,-17.05 -14.5275,-44.05 -19.768,-60 -14.5076,-44.1551 -22.9448,-68.5 -23.7402,-68.5 -0.3953,0 -0.8036,35.652 -0.9073,79.2266 -0.1038,43.5746 -0.3823,79.4203 -0.6191,79.657 -0.6785,0.6786 -29.5045,0.6843 -33.9497,0.01 z m -763.9152,-3.368 c -5.6709,-7.435 -17.0689,-11.0932 -27.2333,-8.7407 -4.1314,0.9563 -4.161,0.9424 -7.1955,-3.3625 -9.336,-13.2451 -30.5071,-11.365 -40.3233,3.5809 -1.0806,1.6452 -1.972,2.1581 -2.6072,1.5 -0.7827,-0.811 -6.2022,-32.4315 -18.2532,-106.5 -0.4922,-3.025 -2.0412,-13.6 -3.4422,-23.5 -1.401,-9.9 -4.5728,-30.375 -7.0484,-45.5 -5.2363,-31.99156 -20.1973,-125.53821 -21.5727,-134.88699 -0.5168,-3.51286 -1.2079,-7.45588 -1.5358,-8.76228 l -0.5962,-2.37527 37.3605,0.26228 37.3604,0.26228 0.7427,6.5 c 0.4085,3.575 1.6568,13.475 2.7741,22 9.8366,75.05499 10.1622,77.6186 19.9937,157.40058 1.0777,8.7453 2.1545,16.0957 2.393,16.3342 0.2385,0.2385 0.689,-1.9668 1.0011,-4.9006 3.8424,-36.1216 14.7129,-119.22969 23.8164,-182.08384 l 2.2811,-15.74967 32.1826,-3.3e-4 c 29.7811,-3.1e-4 32.2223,0.13025 32.7142,1.74966 0.2924,0.9625 1.664,10.075 3.0481,20.25 1.384,10.175 3.418,24.575 4.52,32 1.1021,7.425 2.8914,20.025 3.9764,28 7.8021,57.34648 12.1861,90.51968 13.6121,102.99998 0.9112,7.975 1.9003,15.175 2.198,16 0.2977,0.825 1.5959,-7.5 2.8848,-18.5 3.411,-29.1099 7.9765,-66.1646 10.904,-88.49998 4.9685,-37.90755 11.4598,-90.86791 11.4598,-93.49698 0,-0.27666 16.65,-0.50302 37,-0.50302 h 37 v 2.50329 c 0,2.91504 -8.5528,58.31296 -10.1595,65.80459 -0.5981,2.78898 -3.2709,9.5358 -5.9396,14.99293 -6.5168,13.32623 -6.9059,15.78968 -3.4994,22.15365 l 2.7008,5.04554 -2.3702,14.47318 -2.3702,14.4731 -2.9519,0.6037 c -4.4723,0.9147 -8.1384,3.7321 -9.3394,7.1774 -0.5935,1.7024 -1.3601,8.7602 -1.7036,15.684 -0.7499,15.1183 0.6259,25.5749 4.0636,30.8845 2.7543,4.254 3.2178,-0.9152 -4.053,45.2041 -2.4713,15.675 -6.294,39.075 -8.4951,52 -2.2011,12.925 -4.4419,26.425 -4.9795,30 -1.6988,11.2961 -1.5528,11 -5.4221,11 -3.2627,0 -3.4802,-0.2037 -3.4701,-3.25 0.031,-9.341 4.2561,-48.5226 6.9211,-64.1826 4.3669,-25.6604 4.7794,-32.1478 2.4553,-38.6109 -6.236,-17.3417 -23.967,-23.1417 -38.0074,-12.4326 -3.8037,2.9012 -6.8831,9.0828 -12.5168,25.1256 -4.9689,14.15 -8.9726,23.2599 -12.9613,29.4918 -1.6339,2.5527 -5.831,12.9027 -9.327,23 -9.4791,27.3781 -11.8812,33.8587 -12.5503,33.8587 -0.3334,0 -1.6118,-6.8625 -2.8408,-15.25 -1.229,-8.3875 -2.9239,-19.75 -3.7664,-25.25 -6.7109,-43.8063 -18.3753,-123.9899 -18.4476,-126.8133 -0.018,-0.6866 -0.3889,-0.5546 -0.8811,0.3133 -0.4679,0.825 -1.1603,5.1 -1.5388,9.5 -0.3784,4.4 -2.4402,20.375 -4.5818,35.5 -6.8256,48.2065 -11.8452,84.2448 -12.9536,93 -2.796,22.0869 -5.3179,36 -6.5253,36 -0.6884,0 -2.4453,-1.5649 -3.9042,-3.4777 z m 331.4152,-75.0223 v -6.5 h 3.5 3.5 v 6.5 6.5 h -3.5 -3.5 z m -59.5,-17.9474 -3,-2.4376 5.0379,-5.0835 5.038,-5.0836 2.6384,2.7761 2.6384,2.776 -4.2591,4.75 c -2.3426,2.6125 -4.447,4.7478 -4.6764,4.7451 -0.2295,0 -1.7672,-1.1019 -3.4172,-2.4425 z m 119.3712,-0.3413 c -6.6522,-7.4258 -6.4648,-6.9505 -3.8415,-9.7429 l 2.3587,-2.5107 4.8058,4.7336 c 2.6432,2.6034 4.8058,5.0573 4.8058,5.453 0,0.3958 -1.2825,1.6328 -2.85,2.7489 l -2.85,2.0294 z m -62.7484,-44.1585 c -11.3168,-2.8557 -18.0967,-16.9773 -13.6904,-28.5151 1.7929,-4.6945 7.9116,-10.955 12.3699,-12.6565 1.4837,-0.5663 5.1958,-0.8872 8.2491,-0.7132 l 5.5514,0.3164 11.9498,-9.9922 c 11.198,-9.3636 23.8143,-19.5378 36.328,-29.29625 5.7384,-4.47493 8.1194,-5.21796 8.1194,-2.53383 0,1.96367 -9.2173,14.4268 -27.9192,37.75088 l -13.5613,16.9129 -0.01,7.0871 c -0.01,5.9125 -0.4635,7.859 -2.7479,11.7449 -4.642,7.8966 -15.4144,12.2227 -24.639,9.8949 z m -83.5318,-18.831 c -1.386,-4.5387 -0.1976,-5.7076 6.1168,-6.016 l 6.0245,-0.2943 0.6294,3.147 c 0.3461,1.7308 0.4347,3.462 0.1967,3.847 -0.2379,0.385 -3.1347,0.7761 -6.4371,0.8691 -4.9029,0.138 -6.1009,-0.1469 -6.5303,-1.5528 z m 171.5993,0.979 -6.3097,-0.2993 0.3097,-3.2007 0.3097,-3.2008 h 6.5 c 6.4149,0 6.5043,0.038 6.8282,2.8718 0.1805,1.5795 -0.044,3.1545 -0.5,3.5 -0.4555,0.3455 -3.6676,0.4936 -7.1379,0.329 z m -143.0629,-62.67844 c -2.2701,-2.46271 -4.1274,-4.77361 -4.1274,-5.13533 0,-0.36172 1.1918,-1.76215 2.6483,-3.11208 l 2.6484,-2.45441 5.1016,5.14158 5.1017,5.14158 -2.8058,2.44816 c -1.5431,1.34649 -3.1733,2.44816 -3.6226,2.44816 -0.4493,0 -2.6742,-2.01494 -4.9442,-4.47766 z m 58.0684,-19.4876 c -0.3992,-0.29411 -0.5665,-3.34724 -0.3719,-6.78474 l 0.3537,-6.25 h 3.4569 3.4569 l -0.2957,6.66592 c -0.2894,6.52446 -0.3549,6.66844 -3.085,6.78474 -1.5341,0.0653 -3.1158,-0.12181 -3.5149,-0.41592 z"
         id="path1"
         sodipodi:nodetypes="ccccssscsssssssssssssssssssssscsssssssssssscsssassssssscsssscccssscccsscsssssssssscsscssscsssssscsssssssccsssssssssscccssssscsssscccsssssssssscssssscssssscsssssssscssscsssssssscccccssssssssscccsssssssssssscccccsccccsscccccccsssssscsssssscccssssssscsssssscsssssccsscccsssscccssssssscssscsssssscccssscsssssscssssscccccsssscccssssssssssssssscsssssccsssssssssscccsssssscssssssssssscsssscccssssssssssssssssscssssssscccccccccscccccscssscssscssssscssssccssssscssssscccssssssscccssssscccsss" /><path
         d="m 1393.6656,1622.2219 c 0,-0.2781 2.4507,-6.1885 5.446,-13.1343 8.6383,-20.0313 10.3701,-25.7062 13.0253,-42.6815 1.8477,-11.8122 2.4689,-19.5414 2.3892,-29.7257 -0.1154,-14.7364 0.5438,-24.3305 2.2996,-33.4742 0.8034,-4.1836 0.7958,-6.9066 -0.028,-10.1796 -1.4728,-5.8491 0.2089,-14.738 6.8678,-36.3004 2.7502,-8.9056 5.0004,-16.4432 5.0004,-16.7503 0,-0.9871 -5.355,-0.5737 -10.5,0.8107 -2.75,0.7399 -8.2025,2.9845 -12.1166,4.9881 -5.0319,2.5757 -8.4178,3.6428 -11.5588,3.6428 -8.2425,0 -8.0864,-0.5082 -8.0108,26.079 0.037,12.8816 -0.3696,26.346 -0.9027,29.921 -2.2802,15.2918 -8.1189,34.9853 -12.9362,43.6323 -1.5725,2.8228 -3.5989,7.9873 -4.5031,11.4766 -2.1113,8.1476 -3.4284,10.735 -4.48,8.801 -0.4216,-0.7754 -1.0891,-3.3655 -1.4833,-5.7558 -0.3942,-2.3902 -1.0405,-3.9652 -1.4362,-3.5 -0.3957,0.4653 -2.1283,5.5709 -3.8502,11.3459 -10.7215,35.9582 -13.7945,45 -15.294,45 -1.3938,0 -1.1345,-4.6534 1.0158,-18.2283 2.6721,-16.8691 4.3506,-36.9488 3.9064,-46.7308 -0.3258,-7.1739 -0.6577,-8.387 -2.7208,-9.9432 -2.3335,-1.7602 -2.3413,-1.8343 -1.1237,-10.7439 0.6859,-5.0196 0.9131,-11.148 0.5157,-13.9126 -0.3907,-2.7177 -0.671,-8.154 -0.6229,-12.0807 0.081,-6.6382 -0.096,-7.2597 -2.5232,-8.8502 -2.9513,-1.9338 -2.9467,-3.3354 0.064,-19.4286 1.564,-8.3605 2.3625,-28.6133 1.1749,-29.8008 -0.3411,-0.3411 -4.1166,0.1311 -8.39,1.0495 -10.0871,2.1676 -21.9516,2.2263 -24.279,0.1201 -1.4758,-1.3357 -2.6602,-1.3869 -8.5787,-0.3714 -6.9998,1.2011 -13.1989,3.7202 -15.0058,6.0978 -0.553,0.7277 -3.8609,7.6231 -7.3508,15.3231 -6.499,14.339 -8.8753,17.9542 -19.9583,30.3637 -3.5053,3.9248 -7.1364,8.3736 -8.0692,9.8862 -0.9328,1.5126 -2.7279,3.6501 -3.989,4.7501 l -2.2929,2 0.6688,-2.75 c 0.3678,-1.5125 0.3015,-2.75 -0.1473,-2.75 -1.6303,0 -8.135,7.722 -14.7414,17.5 -12.8677,19.0453 -22.4806,30.8914 -22.4806,27.7032 0,-0.4929 3.811,-8.7891 8.4689,-18.436 11.7882,-24.4143 14.6482,-33.3949 13.3014,-41.7672 -0.2212,-1.375 0.6014,-5.2634 1.8279,-8.6409 2.5965,-7.1499 2.9893,-9.8545 1.9659,-13.5357 -0.5803,-2.0875 0.046,-4.0895 2.8459,-9.0961 4.5959,-8.2182 4.7067,-10.7273 0.4736,-10.7273 -1.714,0 -8.9672,-1.4266 -16.1182,-3.1703 -9.3533,-2.2806 -13.4598,-2.8882 -14.6337,-2.1652 -0.8974,0.5528 -3.8817,4.3788 -6.6317,8.5022 -2.75,4.1235 -9.7675,13.7603 -15.5945,21.4153 -5.8269,7.6549 -13.7303,18.643 -17.5631,24.418 -10.8975,16.4198 -20.7885,29.0698 -37.4484,47.8943 -17.194,19.4281 -19.7871,21.3078 -34.894,25.2937 -10.9713,2.8947 -32.8173,3.0831 -43,0.3707 -27.3023,-7.2725 -41.5747,-27.1942 -46.4671,-64.8599 -2.7182,-20.9265 -1.627,-44.9609 2.9828,-65.6988 6.9643,-31.3297 21.1457,-66.2587 36.9466,-91 3.5942,-5.6279 12.5377,-20.9823 12.5377,-21.5252 0,-0.2735 1.7399,-3.0798 3.8665,-6.2361 2.1265,-3.1563 8.4874,-14.0285 14.1352,-24.1605 15.6804,-28.1302 29.9726,-49.4265 49.2604,-73.4013 6.5588,-8.1527 11.7666,-14.9816 11.5729,-15.1753 -1.1485,-1.1485 -26.4552,18.8589 -42.3124,33.4521 -9.1305,8.4026 -12.9271,10.3572 -9.254,4.7643 1.728,-2.6314 12.4112,-15.2643 21.6413,-25.5912 11.9215,-13.3381 46.7896,-44.9464 53.0902,-48.1269 14.9591,-7.5514 43.6412,-12.7458 64.4999,-11.6812 23.666,1.2079 39.9082,8.5094 48.4999,21.8024 5.8846,9.1047 7.4242,15.9748 7.3678,32.8788 -0.055,16.4237 -1.9735,25.7281 -7.4078,35.9239 -4.1165,7.7235 -13.8531,17.6766 -18.5646,18.9775 -1.9975,0.5516 -4.5441,1.8119 -5.6591,2.8008 -1.9864,1.7618 -2.017,1.7426 -1.5204,-0.9521 0.6687,-3.6281 -1.1882,-3.587 -5.431,0.1201 -2.6914,2.3516 -3.6123,2.6677 -5.0975,1.75 -1.4906,-0.9211 -2.1652,-0.6759 -3.7972,1.3799 -5.7321,7.2208 -7.3991,8.7958 -8.1162,7.6685 -1.2126,-1.9063 -0.8809,-5.5609 0.7998,-8.8111 2.105,-4.0706 1.0328,-4.8083 -2.3341,-1.6058 -1.5068,1.4332 -3.8646,2.8922 -5.2396,3.2424 -1.6218,0.413 -3.1437,2.0188 -4.3324,4.5713 -1.7089,3.6697 -3.8831,5.0131 -5.0521,3.1216 -0.2764,-0.4472 0.5503,-3.0347 1.837,-5.75 4.6021,-9.7115 7.9506,-36.1135 5.4793,-43.2026 -2.0534,-5.8903 -3.8136,-4.6421 -17.8032,12.6244 -6.5245,8.0527 -15.1341,18.0163 -19.1325,22.1413 -9.2496,9.5423 -15.7486,17.6189 -25.6224,31.8419 -4.3305,6.238 -9.3815,13.438 -11.2243,16 -3.8702,5.3806 -10.2915,18.7219 -15.2225,31.6271 -2.566,6.7157 -4.4714,9.9816 -7.5846,13 -7.572,7.3414 -24.7312,39.4762 -28.8511,54.031 -3.1914,11.2745 -5.4644,17.2577 -11.5869,30.5 -8.1253,17.5743 -12.9677,39.3711 -14.4403,65 -0.6283,10.9345 -0.553,11.6136 1.5314,13.8089 1.7653,1.8592 2.8068,2.1747 5.3484,1.6199 6.3431,-1.3845 13.3579,-7.6736 30.5936,-27.4288 11.6268,-13.3264 12.9492,-14.5717 23.5626,-22.1882 5.5,-3.947 12.25,-9.0499 15,-11.3398 10.6193,-8.8424 21.2856,-16.3791 28.0455,-19.8167 5.4325,-2.7626 7.5554,-4.4902 9.2729,-7.5459 2.4479,-4.3556 1.8048,-5.5549 -2.4116,-4.4966 -2.2707,0.5699 -22.9077,-1.4627 -22.1611,-2.1827 0.1398,-0.1349 4.6587,-0.7691 10.0418,-1.4093 5.6198,-0.6684 12.0071,-2.1325 15,-3.4383 2.8669,-1.2508 7.3742,-2.8061 10.0162,-3.4563 7.7435,-1.9054 23.5195,-14.0022 42.4463,-32.5472 5.6375,-5.5238 10.25,-9.7225 10.25,-9.3305 0,0.392 -1.5135,3.0839 -3.3632,5.9821 -3.7804,5.9231 -8.6368,15.2469 -8.6368,16.5819 0,0.9631 11.037,-0.9146 20.5,-3.4876 9.9525,-2.7061 10.7069,-3.8345 16.4314,-24.5764 2.1968,-7.9596 6.3051,-19.8218 9.1296,-26.3603 2.8246,-6.5385 6.617,-15.4882 8.4277,-19.8882 3.1185,-7.5779 4.6316,-10.9139 15.1317,-33.3635 3.6063,-7.7103 4.3796,-10.3962 4.3796,-15.2125 0,-6.963 2.7327,-14.8572 7.5848,-21.9109 5.4725,-7.9557 6.8596,-10.8084 11.9441,-24.5647 2.6322,-7.1216 5.914,-14.7443 7.2929,-16.9391 3.5962,-5.7242 17.4843,-21.617 22.2062,-25.4117 2.55,-2.0492 5.462,-6.029 7.9839,-10.9117 2.1835,-4.2273 4.8638,-9.261 5.9562,-11.186 1.0924,-1.925 3.7447,-7.3892 5.8939,-12.1426 3.7982,-8.4006 4.019,-8.6615 7.8822,-9.3142 2.7687,-0.4677 4.633,-1.5622 6.1451,-3.6073 1.4926,-2.0189 3.0358,-2.9359 4.9406,-2.9359 3.7475,0 5.1701,-1.6863 5.1701,-6.1286 0,-2.2155 0.7101,-4.441 1.75,-5.4843 1.6676,-1.6731 1.7755,-1.5372 2.2913,2.8866 0.2977,2.5532 0.8847,4.9856 1.3044,5.4053 1.3444,1.3444 2.7273,-2.0585 2.4094,-5.929 -0.1694,-2.0625 0,-3.75 0.3806,-3.75 0.3787,0 0.9882,-1.7741 1.3546,-3.9424 0.7574,-4.4834 3.1514,-7.2554 4.4505,-5.1533 0.4337,0.7016 1.0536,11.2477 1.3777,23.4357 0.3435,12.9167 1.2464,25.9141 2.1646,31.16 0.8664,4.95 1.8498,16.5541 2.1854,25.7869 0.3356,9.2328 0.885,16.6412 1.2208,16.463 0.3359,-0.1781 10.029,-4.9294 21.5403,-10.5585 18.7844,-9.1857 33.2209,-14.7286 47.0704,-18.0727 19.8397,-4.7905 26.9806,-6.3262 40,-8.6023 8.25,-1.4423 18.15,-3.379 22,-4.3037 4.8252,-1.1589 10.7282,-1.6335 19,-1.5277 36.6271,0.4685 70.8692,14.0943 93.2838,37.12 20.1493,20.6989 24.3947,30.1949 24.3072,54.3712 -0.054,14.8906 -0.5532,18.0163 -4.9422,30.9305 -4.8753,14.3452 -10.8488,25.4675 -18.4718,34.3934 -32.6495,38.23 -63.2438,62.8395 -89.6601,72.1209 -11.014,3.8697 -11.3204,3.4755 17.9831,23.1448 15.1715,10.1836 23.1493,17.7322 27.1976,25.7343 6.0934,12.0447 13.5872,18.7159 26.9702,24.0095 5.094,2.0149 7.9836,4.0168 12.2421,8.4814 3.0658,3.2142 5.7637,5.5373 5.9953,5.1624 0.2317,-0.3748 0.9364,-3.5225 1.5661,-6.9949 0.8314,-4.5852 0.8446,-6.6753 0.048,-7.635 -0.7995,-0.9633 -0.7031,-4.2623 0.3555,-12.1724 1.4101,-10.5357 1.3929,-10.9348 -0.5904,-13.7351 -1.883,-2.6586 -1.9454,-3.3234 -0.7979,-8.5 0.6846,-3.0887 2.3205,-8.4893 3.6352,-12.0012 2.1915,-5.854 2.2539,-6.485 0.7502,-7.5846 -1.4996,-1.0966 -1.407,-1.8347 1.0813,-8.6147 8.5237,-23.2253 10.5336,-30.6135 10.3896,-38.1912 -0.078,-4.0878 0.1579,-7.9164 0.5235,-8.5081 0.3657,-0.5917 1.1101,-4.5948 1.6543,-8.8959 0.5441,-4.3011 1.6221,-9.8452 2.3954,-12.3202 0.7733,-2.475 2.6271,-9.675 4.1195,-16 1.4924,-6.325 3.8343,-14.8403 5.2042,-18.923 1.37,-4.0827 3.7251,-11.9577 5.2337,-17.5 1.5086,-5.5423 5.0552,-17.502 7.8813,-26.577 2.8261,-9.075 5.6349,-19.1504 6.2417,-22.3898 1.0105,-5.3943 1.7622,-6.5893 8.9331,-14.2022 12.1582,-12.9078 21.0146,-23.5942 22.5072,-27.1581 1.4089,-3.3639 4.875,-4.4382 7.1096,-2.2036 1.0357,1.0357 2.4239,-1.8953 5.3278,-11.2486 1.2408,-3.9966 4.6369,-6.0197 6.1353,-3.6548 0.4729,0.7464 0.8884,2.932 0.9232,4.857 0.035,1.925 0.8292,4.9174 1.7653,6.6498 0.9361,1.7323 2.5686,4.8823 3.6279,7 1.0592,2.1176 2.0093,3.9753 2.1113,4.1282 0.8041,1.2054 5.9079,-2.4955 8.1719,-5.9258 1.535,-2.3256 3.5693,-5.1562 4.5206,-6.2903 0.9513,-1.134 2.6001,-3.1869 3.6639,-4.5619 3.1891,-4.1219 3.4919,-1.5732 0.8035,6.7617 -1.3947,4.324 -2.8498,9.6341 -3.2334,11.8001 -0.3837,2.166 -1.5418,7.5382 -2.5737,11.9382 -1.0318,4.4 -1.8791,10.5362 -1.883,13.6358 0,3.0996 -0.6792,6.9246 -1.5008,8.5 -3.9186,7.5135 -0.9459,19.7754 9.7854,40.3643 5.3205,10.2079 7.1616,15.0672 10.0406,26.5 4.2993,17.0736 7.2667,32.0654 8.6927,43.917 0.59,4.9043 1.6869,11.8793 2.4374,15.5 0.7505,3.6206 1.8676,10.183 2.4824,14.583 1.3298,9.5166 4.0173,21.6752 5.0415,22.8084 0.4018,0.4446 1.2879,-2.0243 1.9691,-5.4865 1.7734,-9.0141 11.4346,-35.0494 24.2397,-65.3219 5.1456,-12.1645 10.5854,-26.7322 13.4511,-36.0214 2.5283,-8.1953 2.7824,-10.4616 2.9135,-25.9786 0.1444,-17.0842 1.6216,-28.7132 4.0014,-31.5 2.1489,-2.5163 5.3186,-11.547 8.3615,-23.8222 2.7231,-10.9849 6.2607,-21.4174 8.0281,-23.6754 0.995,-1.271 3.6788,-9.9362 4.466,-14.419 0.33,-1.879 1.6712,-4.8208 2.9804,-6.5373 2.7263,-3.5744 11.3731,-27.6945 15.8797,-44.2962 2.3747,-8.7484 3.4335,-11.25 4.7612,-11.25 1.6014,0 1.5953,0.4813 -0.099,7.75 -0.9935,4.2625 -2.1036,8.65 -2.467,9.75 -0.5454,1.6507 -0.4626,1.738 0.4737,0.5 2.1927,-2.8991 6.0547,-10.9528 6.0981,-12.7167 0.024,-0.9808 0.7094,-3.5833 1.5229,-5.7833 0.8134,-2.2 3.0065,-9.85 4.8735,-17 3.8524,-14.7539 8.9312,-29.3544 11.1755,-32.1277 1.3828,-1.7085 1.4694,-1.3476 0.9906,4.1277 -0.2885,3.3 -1.1939,9.6319 -2.0119,14.0709 -4.5571,24.7291 -8.9274,63.4674 -10.5968,93.9291 -1.1414,20.8261 -2.4299,33.133 -4.5021,43 -1.2252,5.8341 -1.5081,10.3016 -1.0449,16.5001 0.3494,4.675 0.5942,11.1575 0.5441,14.4056 -0.1015,6.5811 -12.5635,59.6042 -18.6016,79.1457 -4.8364,15.6526 -5.7856,19.5508 -8.3878,34.4487 -1.2008,6.875 -3.0265,16.1 -4.057,20.5 -2.314,9.8803 -3.8524,21.4413 -2.9291,22.0119 0.3789,0.2342 4.3136,-1.1028 8.7438,-2.9712 4.4301,-1.8684 12.2582,-4.3692 17.3958,-5.5574 5.1376,-1.1882 10.4661,-2.7371 11.8411,-3.442 3.4509,-1.7692 6.5203,-8.2649 11.4967,-24.3299 2.3361,-7.5412 7.871,-22.3271 12.2998,-32.8575 7.2758,-17.2996 10.1937,-23.4945 22.0691,-46.8539 2.8394,-5.5853 3.6177,-8.359 3.851,-13.7245 0.3147,-7.2349 3.0218,-15.4052 6.718,-20.2755 3.4432,-4.5368 6.1371,-10.2548 11.042,-23.4371 5.7264,-15.3903 12.9659,-26.6027 25.9111,-40.1304 10.9961,-11.491 15.9723,-18.7975 23.7914,-34.9326 6.2133,-12.8213 7.1838,-14 11.5279,-14 2.8754,0 3.5576,-0.4606 4.4428,-3 0.9174,-2.6315 1.5179,-3 4.889,-3 4.5397,0 4.9258,-0.4658 5.1056,-6.1605 0.1519,-4.8118 1.265,-6.8395 3.7545,-6.8395 1.3206,0 1.5787,0.7892 1.2805,3.9155 -0.2053,2.1535 0.081,4.7279 0.6369,5.7208 0.8604,1.5374 1.1141,1.2515 1.7105,-1.9274 0.3851,-2.053 0.4664,-4.6269 0.1806,-5.7198 -0.2858,-1.0929 -0.1119,-2.2391 0.3865,-2.5471 0.4983,-0.308 0.9061,-1.8835 0.9061,-3.501 0,-2.957 3.368,-7.4496 4.883,-6.5133 0.4455,0.2754 1.082,10.9793 1.4145,23.7865 0.3324,12.8072 1.2742,28.6858 2.0929,35.2858 0.8187,6.6 1.6085,18.075 1.7552,25.5 0.2401,12.1531 -0.046,14.8469 -2.8727,27.0001 -1.7267,7.425 -3.8396,15.75 -4.6953,18.5 -1.9748,6.346 -1.9951,17.1777 -0.058,30.9767 1.6256,11.5799 1.5442,12.3583 -2.0941,20.0233 -2.1371,4.5024 -2.3907,6.493 -2.5479,20 -0.1531,13.1578 -1.1643,33.4122 -3.3277,66.6552 l -0.6283,9.6551 7.2381,8.0949 c 3.981,4.4521 7.5159,8.0948 7.8554,8.0948 0.3395,0 1.8325,-4.8375 3.3178,-10.75 8.2518,-32.8474 16.9945,-61.7418 23.3051,-77.0225 3.1162,-7.5459 5.5996,-11.7928 9.3558,-16 4.4317,-4.9638 10.2011,-14.158 20.6995,-32.9865 3.9573,-7.0974 8.9258,-14.927 17.7588,-27.9852 6.384,-9.4378 12.2009,-16.0698 29.5,-33.6341 22.7622,-23.111 30.1966,-29.0468 42.7086,-34.0994 12.9222,-5.2183 19.3612,-6.6712 32.1004,-7.2429 20.2284,-0.9079 32.3832,1.9347 48.1411,11.2586 10.0762,5.9621 16.6017,11.6243 21.1892,18.3862 3.1611,4.6593 6.8842,7.0603 5.5478,3.5777 -0.3544,-0.9235 0.4073,-2.1415 1.9863,-3.1761 4.9986,-3.2752 21.9565,-9.4969 27.3746,-10.0434 3.025,-0.3052 6.2994,-0.9658 7.2764,-1.468 1.2862,-0.6611 2.6318,-0.304 4.8763,1.2943 2.9031,2.0672 3.5467,2.1382 10.1361,1.1182 4.9918,-0.7726 9.9641,-2.5705 17.1137,-6.1877 5.5427,-2.8043 10.2321,-4.6354 10.4209,-4.069 0.7495,2.2484 2.3623,0.9057 1.7659,-1.4703 -0.497,-1.9804 -0.2493,-2.5 1.1916,-2.5 1.0005,0 2.3039,0.4848 2.8964,1.0773 0.7697,0.7697 1.8131,0.3414 3.6545,-1.5 3.0249,-3.0249 3.9444,-3.1582 6.2031,-0.8995 2.1928,2.1927 4.3584,0.8548 5.8445,-3.6109 0.9131,-2.7438 1.8965,-3.5944 5.3109,-4.5939 3.5902,-1.0511 4.2738,-1.0088 4.7741,0.2948 0.3211,0.8368 -0.036,2.2439 -0.7939,3.1268 -1.6341,1.9041 -4.6705,8.0033 -4.6705,9.3815 0,0.6113 0.4612,0.6018 1.25,-0.026 0.6875,-0.547 6.9983,-2.0034 14.0239,-3.2364 15.0934,-2.6489 21.3029,-2.2846 35.0569,2.0566 11.1546,3.5207 13.1151,3.5871 17.0748,0.5776 8.8823,-6.7506 14.466,-7.2609 29.8926,-2.7317 5.939,1.7437 11.789,3.5767 13,4.0733 1.211,0.4966 4.7893,1.6147 7.9518,2.4845 6.39,1.7576 7.2623,3.0346 2.75,4.0257 -7.5856,1.6661 -0.197,4.2284 22.864,7.9291 8.4502,1.3561 15.5836,2.6852 15.8522,2.9537 0.811,0.8111 -5.4967,1.4879 -19.7162,2.1155 -15.9376,0.7033 -31,2.8685 -31,4.4561 0,0.4 -2.5545,1.299 -5.6766,1.9977 -6.9201,1.5487 -12.5583,3.9063 -17.713,7.4066 -2.1392,1.4527 -4.8617,2.6413 -6.05,2.6413 -1.1882,0 -2.6938,0.5334 -3.3456,1.1852 -0.7865,0.7865 -6.9936,1.3269 -18.45,1.6063 -9.4957,0.2316 -17.6923,0.8232 -18.2148,1.3148 -0.5225,0.4915 -2.4633,0.8937 -4.313,0.8937 -1.8496,0 -5.6971,1.0999 -8.55,2.4442 -2.8528,1.3444 -7.5821,2.9217 -10.5095,3.5051 -2.9273,0.5834 -7.7329,2.2011 -10.6791,3.5949 -5.7711,2.7302 -5.7692,2.7266 -7.0482,13.4559 -0.4259,3.5735 -2.0671,8.1271 -4.6855,13 -4.5784,8.521 -7.8591,15.0092 -13.3991,26.5 -4.2973,8.9131 -5.1115,16.4961 -2.3593,21.9716 3.0891,6.1455 18.1617,8.7822 23.6766,4.1418 7.7906,-6.5554 28.5718,-6.0787 42.4911,0.9748 3.7404,1.8954 4.7618,2.8334 3.7598,3.4527 -2.8028,1.7323 -0.094,2.5178 18.5662,5.3838 7.5166,1.1545 7.8299,1.2996 5.1849,2.402 -1.5483,0.6453 -3.4428,1.1733 -4.2099,1.1733 -0.7672,0 -5.8004,1.1163 -11.1849,2.4807 -12.7049,3.2193 -25.4383,8.6403 -32.0954,13.664 -7.8644,5.9348 -11.393,7.093 -24.1947,7.9418 -8.5115,0.5643 -13.449,1.4618 -19,3.454 -4.125,1.4803 -7.95,3.0128 -8.5,3.4054 -0.55,0.3926 -4.375,1.9776 -8.5,3.5221 -6.9683,2.6091 -7.7591,3.2116 -11.1541,8.4979 -4.306,6.7046 -7.5267,12.7657 -12.2398,23.0341 -1.8933,4.125 -7.344,12.9 -12.1126,19.5 -9.7162,13.4478 -14.1444,21.4475 -14.6512,26.4678 l -0.3423,3.3905 6,-0.2536 c 3.3,-0.1395 10.95,-1.1107 17,-2.1583 6.8673,-1.1891 12.9256,-1.6785 16.1253,-1.3025 3.7731,0.4433 6.8071,0.054 11.5,-1.4751 9.4593,-3.0824 21.3118,-5.7028 40.8747,-9.0369 23.902,-4.0735 30.7219,-4.5098 47.4418,-3.035 l 14.4068,1.2708 9.4369,-4.6838 9.4369,-4.6839 h 15.0798 c 8.2939,0 15.3197,0.3883 15.613,0.8628 0.2933,0.4746 2.6824,1.4227 5.309,2.107 2.6267,0.6842 5.5633,1.4513 6.5258,1.7045 2.4357,0.6409 2.1844,1.7553 -0.75,3.3257 -3.4191,1.8298 -3.1358,2.9873 0.75,3.0651 6.8038,0.1361 19.2468,2.4884 19.0349,3.5985 -0.2447,1.2821 1.5329,1.6556 18.2151,3.8272 14.0026,1.8228 21.5,3.3901 21.5,4.4944 0,0.4322 -7.7625,1.0724 -17.25,1.4229 -28.4542,1.0509 -40.6724,2.4503 -44.75,5.1255 -1.925,1.2629 -8.45,3.9384 -14.5,5.9457 -6.05,2.0072 -14.15,5.2255 -18,7.1517 -6.4837,3.2439 -8.6964,3.7216 -30,6.4761 -23.7454,3.0702 -28.247,4.1827 -37.3518,9.2312 -6.1197,3.3933 -8.2349,3.8862 -28.2198,6.5749 -15.8386,2.1308 -24.0904,3.8418 -36.4284,7.5531 -4.4,1.3235 -11.6958,2.9042 -16.2129,3.5126 -4.5171,0.6085 -12.0158,2.424 -16.6639,4.0345 -10.9039,3.7782 -22.3835,6.7144 -30.8686,7.8955 -3.7099,0.5164 -7.4545,1.6482 -8.3214,2.515 -0.8668,0.8669 -2.1064,1.6279 -2.7546,1.6913 -2.541,0.2482 -5.209,-0.37 -5.818,-1.3483 -1.2159,-1.9529 -5.6309,2.6652 -11.517,12.047 -13.4821,21.4886 -21.7731,33.0899 -22.8666,31.9965 -0.7828,-0.7829 4.6909,-15.3349 11.9654,-31.8104 3.0355,-6.875 5.5278,-13.1971 5.5384,-14.0491 0.011,-0.8991 -1.5542,-2.0984 -3.7308,-2.8583 -2.0625,-0.72 -7.898,-3.8479 -12.9677,-6.9509 -8.6925,-5.3202 -10.9751,-7.9775 -8.2823,-9.6417 1.7209,-1.0635 1.0921,-6.4079 -1,-8.5 -1.1,-1.1 -3.0639,-2 -4.3642,-2 -1.8629,0 -2.7109,0.9081 -4,4.2835 -0.8997,2.3558 -1.6358,5.1251 -1.6358,6.1539 0,1.9675 -5.1031,11.6216 -10.6052,20.0626 -1.7924,2.75 -3.9731,7.5069 -4.8458,10.5708 -1.4278,5.0128 -1.4346,6.002 -0.068,9.8758 2.2755,6.4493 1.9323,8.6288 -1.9093,12.1245 -2.3334,2.1234 -3.6396,4.3707 -4.0901,7.0373 -0.3955,2.3409 -1.4306,4.3291 -2.5718,4.9398 -1.3082,0.7001 -1.9099,0.696 -1.9099,-0.013 0,-1.4365 -2.7176,-1.3012 -3.6335,0.1809 -0.4134,0.6688 -1.0078,2.8063 -1.3209,4.75 -0.4681,2.906 -1.0421,3.5888 -3.23,3.8429 -1.4634,0.1699 -3.783,1.4312 -5.1547,2.8028 -1.7473,1.7474 -2.6256,2.1039 -2.9339,1.1911 -0.242,-0.7166 -0.3048,-0.4507 -0.1395,0.5909 0.367,2.3133 -3.4682,10.0514 -8.9798,18.1182 -2.2593,3.3066 -4.9516,7.8926 -5.983,10.1911 -1.0314,2.2985 -2.5451,4.4361 -3.3636,4.7502 -1.9036,0.7305 -1.2727,-2.921 2.7788,-16.0831 1.6094,-5.2282 3.5517,-14.3128 4.3164,-20.188 1.2122,-9.3142 1.2019,-11.0521 -0.08,-13.5707 -0.9086,-1.7847 -1.2319,-4.0774 -0.8461,-6 0.3435,-1.7113 0.321,-9.9351 -0.05,-18.2751 l -0.6744,-15.1636 -3.3527,1.5988 c -1.844,0.8794 -3.3527,2.1503 -3.3527,2.8243 0,0.6741 -2.7001,3.5927 -6.0002,6.4859 -5.8059,5.09 -5.9435,5.3233 -4.25,7.2065 1.6915,1.881 1.5769,2.1016 -3.4163,6.579 -11.844,10.6203 -27.3166,15.8409 -43.3335,14.621 -11.8711,-0.9041 -24.0012,-3.1238 -30.0063,-5.4908 -13.2765,-5.2331 -16.1738,-7.8099 -24.2994,-21.6118 -12.3028,-20.897 -15.6562,-33.0894 -16.4317,-59.7433 l -0.5486,-18.8576 -3.107,0.6359 c -1.7089,0.3498 -6.1076,1.1863 -9.775,1.859 -3.6674,0.6726 -7.0034,1.5584 -7.4133,1.9683 -0.4099,0.4099 -0.8423,13.0093 -0.961,27.9986 l -0.2157,27.2534 -4.1062,16 c -2.9498,11.4938 -5.4978,18.8164 -9.0472,26 -2.7175,5.5 -5.2491,11.5271 -5.6257,13.3935 -0.3767,1.8664 -1.3864,5.0164 -2.2439,7 l -1.5591,3.6065 -1.2531,-4 c -0.6892,-2.2 -1.2877,-5.0875 -1.33,-6.4166 -0.1043,-3.2824 -1.2671,-1.8703 -2.6475,3.2151 -1.0654,3.925 -6.4436,22.6592 -11.3607,39.5731 -2.5374,8.7282 -4.9329,13.6939 -6.027,12.4933 -0.7243,-0.7948 1.0728,-18.542 3.9862,-39.3649 0.6541,-4.675 1.2529,-14.502 1.3307,-21.8378 0.1348,-12.7107 0.036,-13.4236 -2.1085,-15.1603 -1.929,-1.5625 -2.2359,-2.7269 -2.1511,-8.1622 0.054,-3.4868 0.394,-8.8147 0.7546,-11.8397 0.3917,-3.2848 0.1957,-6.8869 -0.4865,-8.9435 -0.6282,-1.894 -0.9091,-6.0146 -0.6242,-9.1569 0.5089,-5.6125 0.4619,-5.7424 -2.6656,-7.3596 -3.6244,-1.8743 -3.6235,-1.0574 -0.019,-18.04 1.2717,-5.9916 2.1865,-14.2088 2.2822,-20.5 l 0.1598,-10.5 -4.5,0.2988 c -2.475,0.1643 -6.075,0.7243 -8,1.2444 -5.8903,1.5915 -20.6081,1.2059 -22.4009,-0.587 -2.7146,-2.7146 -21.0386,1.6082 -24.2802,5.7279 -0.5695,0.7237 -1.7409,3.3409 -2.603,5.8159 -5.3911,15.4765 -11.9933,27.3745 -19.8504,35.7731 -2.4322,2.5998 -7.2365,8.1969 -10.6762,12.4379 -7.1397,8.803 -8.6397,10.1037 -7.1583,6.2075 3.0999,-8.1533 -4.1008,-0.7814 -15.2195,15.5815 -12.4312,18.2945 -20.8115,28.5222 -20.8115,25.3993 0,-0.3305 4.2492,-9.4563 9.4426,-20.2796 10.5663,-22.0207 14.4623,-33.6978 12.3641,-37.0576 -1.0915,-1.7478 -0.8646,-3.2856 1.522,-10.3148 2.3028,-6.7826 2.6814,-9.1904 2.1155,-13.4561 -0.6171,-4.652 -0.3626,-5.7742 2.4333,-10.7282 4.659,-8.2552 4.3716,-9.1715 -3.1275,-9.971 -3.4375,-0.3665 -9.4869,-1.6076 -13.4432,-2.758 -3.9562,-1.1503 -7.8625,-1.8347 -8.6806,-1.5208 -0.8181,0.3139 -2.1756,2.9594 -3.0167,5.8788 -7.1229,24.7228 -10.7111,36.115 -11.9176,37.8374 -0.7799,1.1136 -6.9896,7.9013 -13.7992,15.0838 -6.8097,7.1825 -12.6088,13.403 -12.8869,13.8233 -0.9883,1.4931 -4.6799,2.9353 -8.6936,3.3965 -2.2392,0.2572 -5.0214,0.9762 -6.1827,1.5977 -1.6411,0.8783 -2.7616,0.7938 -5.0301,-0.3793 -1.6053,-0.8301 -3.1511,-2.0813 -3.4352,-2.7803 -0.3611,-0.8888 -1.065,-0.5996 -2.3403,0.9614 l -1.8239,2.2325 -6.7422,-2.0274 c -7.8228,-2.3523 -8.7363,-3.9196 -6.3026,-10.8133 1.7184,-4.8676 1.931,-7.967 0.6814,-9.9374 -0.6633,-1.0461 -1.6861,-0.8684 -5.0278,0.8734 -2.3074,1.2027 -4.4669,1.915 -4.799,1.5829 -0.3321,-0.3321 1.0993,-3.9592 3.1809,-8.0602 4.6273,-9.1166 4.4346,-10.866 -2.4325,-22.083 -2.6938,-4.4 -5.7899,-10.25 -6.8804,-13 -1.0905,-2.75 -4.687,-10.4 -7.9923,-17 -3.3053,-6.6 -7.6606,-17.175 -9.6784,-23.5 -8.4736,-26.5605 -18.7231,-55.592 -19.8111,-56.1141 -0.4423,-0.2122 -1.9323,2.9646 -3.3113,7.0595 -1.379,4.095 -6.8467,16.47 -12.1506,27.5 l -9.6433,20.0546 -0.6853,13 c -0.5494,10.4223 -1.2197,14.4821 -3.3804,20.4747 -3.3593,9.3164 -3.9742,10.4671 -8.5632,16.0253 -2.0434,2.475 -5.4255,7.759 -7.5158,11.7422 -2.0903,3.9832 -4.8172,8.1972 -6.0597,9.3645 l -2.259,2.1223 0.5529,-2.1145 c 0.3041,-1.163 0.2433,-2.1145 -0.1351,-2.1145 -1.5211,0 -3.7323,3.2307 -6.6265,9.6812 -1.6752,3.7337 -3.9172,7.6004 -4.9823,8.5927 -2.4872,2.3171 -2.4747,5.929 0.028,8.1943 1.0807,0.978 2.6944,4.3102 3.586,7.405 0.8916,3.0948 2.4155,6.5268 3.3864,7.6268 3.7315,4.2277 3.6221,4.7703 -0.8107,4.0214 -5.8722,-0.9921 -5.4363,0.8882 2.1235,9.1584 3.4375,3.7606 7.6347,8.6335 9.3271,10.8288 5.8736,7.6189 15.6853,22.5624 15.1594,23.0882 -0.2908,0.2908 -3.8379,-2.3282 -7.8826,-5.8201 -20.6541,-17.8311 -43.9427,-35.0102 -44.6371,-32.927 -0.2269,0.6807 -2.6821,-0.9022 -5.7531,-3.7088 -5.5798,-5.0997 -13.6827,-9.5342 -24.0426,-13.1578 -4.8474,-1.6955 -8.7981,-4.4493 -19.5,-13.5924 -11.0155,-9.411 -15.4858,-12.4978 -24.9401,-17.2215 -14.2467,-7.1181 -18.7219,-10.2078 -26.981,-18.6281 -3.575,-3.6448 -9.875,-8.7146 -14,-11.2663 -9.7092,-6.006 -20.4251,-14.0463 -25.6195,-19.2227 -3.4853,-3.4732 -5.207,-4.332 -11.1835,-5.5782 -3.8853,-0.81 -8.2814,-1.9357 -9.7692,-2.5013 -1.4879,-0.5657 -2.8027,-0.9034 -2.9219,-0.7506 -0.1192,0.1529 -2.2961,4.7031 -4.8375,10.1115 -2.5414,5.4085 -6.212,12.0013 -8.1569,14.6508 -6.6903,9.1141 -7.8385,13.0371 -7.0541,24.1014 0.4357,6.1462 0.3106,10.4792 -0.3375,11.6903 -0.5665,1.0584 -1.4361,5.974 -1.9326,10.9234 -0.6181,6.163 -1.7173,10.701 -3.4878,14.3998 -4.2959,8.9746 -11.6812,21.9852 -16.7167,29.4498 -2.6153,3.8769 -6.3702,10.2559 -8.3441,14.1756 -4.5128,8.9613 -5.6387,9.7269 -5.6387,3.8344 0,-2.5074 -0.3375,-4.5589 -0.75,-4.5587 -0.4125,10e-5 -2.2916,3.2626 -4.1758,7.25 -8.9391,18.917 -32.0742,56.8244 -32.0742,52.5541 z m 762,-121.5812 c 4.5894,-2.6202 10.6533,-7.1316 14.4135,-10.7232 1.1516,-1.1 7.0422,-5.7228 13.0902,-10.2729 6.0479,-4.5501 15.4523,-11.6376 20.8985,-15.75 5.4461,-4.1124 10.2435,-7.4771 10.6607,-7.4771 1.2741,0 4.7931,-8.1778 6.0245,-14 0.6397,-3.025 2.4829,-8.1265 4.096,-11.3367 1.6131,-3.2102 2.7943,-6.8102 2.6248,-8 -0.2877,-2.0192 -0.7744,-2.1415 -7.3082,-1.8364 -11.7833,0.5502 -27.0142,-5.7834 -32,-13.3068 -2.2645,-3.417 -4.289,-5.0623 -8.2576,-6.7106 -4.7707,-1.9816 -9.1906,-6.1946 -7.877,-7.5082 0.2888,-0.2889 1.9091,-0.6341 3.6004,-0.7671 4.4625,-0.3511 4.8168,-1.298 1.5395,-4.1142 -2.3092,-1.9841 -2.8605,-3.2152 -2.6749,-5.9722 0.1987,-2.9491 -0.171,-3.6268 -2.451,-4.4936 l -2.685,-1.0209 2.1528,-2.0056 c 3.1448,-2.9298 2.7103,-3.5831 -2.8186,-4.2379 -6.504,-0.7703 -9.0286,-2.2014 -9.0286,-5.118 0,-3.2682 2.0591,-3.7452 8.2169,-1.9036 8.4292,2.521 22.833,1.0483 40.7831,-4.1696 5.7134,-1.6608 8.1719,-1.6001 28.2684,0.6982 9.3798,1.0727 9.8586,1.0325 12.032,-1.0093 2.0722,-1.9467 2.4971,-2.0052 5.0286,-0.6918 4.4974,2.3333 15.621,4.7643 18.8473,4.1191 3.485,-0.697 8.8237,-4.2476 8.8237,-5.8684 0,-1.7614 4.1743,-5.7464 6.0193,-5.7464 0.9189,0 2.438,0.8478 3.3758,1.8841 2.7881,3.0808 9.948,4.6293 14.7511,3.1903 4.0023,-1.1992 5.3538,-0.9086 5.3538,1.151 0,0.5823 1.2662,2.0041 2.8137,3.1595 2.1459,1.6021 4.2822,2.1025 9,2.108 6.1592,0.01 6.1876,-0.01 6.4836,-3.0275 0.2078,-2.1208 -0.6204,-4.3015 -2.75,-7.2414 -1.676,-2.3137 -3.0473,-4.6764 -3.0473,-5.2505 0,-0.5741 -0.6956,-2.1055 -1.5458,-3.4031 -1.1148,-1.7013 -2.1605,-2.2054 -3.75,-1.8078 -2.1256,0.5317 -2.1418,0.4806 -0.4542,-1.4343 1.8299,-2.0764 2.3786,-8.2426 0.8791,-9.8783 -0.479,-0.5225 -1.1547,-2.1563 -1.5017,-3.6307 -0.5205,-2.2121 -0.099,-3.0595 2.4124,-4.8476 3.8522,-2.743 2.9573,-3.9809 -5.0398,-6.9717 -6.7576,-2.5271 -8.9565,-4.4435 -7.16,-6.24 0.8736,-0.8736 2.8184,-0.6195 7.9785,1.0424 8.3715,2.6962 10.3432,2.7224 17.5785,0.2331 4.6021,-1.5834 7.2305,-1.8474 13.5449,-1.3604 8.9637,0.6912 8.9714,0.684 9.629,-9.0699 0.5373,-7.9705 1.4058,-12.0615 4.1078,-19.3489 1.3778,-3.716 3.6694,-10.7533 5.0926,-15.6385 2.5115,-8.6207 2.5326,-8.9224 0.717,-10.25 -1.0288,-0.7523 -3.3846,-1.3678 -5.235,-1.3678 -4.9896,0 -19.9485,-6.8639 -24.5097,-11.2463 -2.1547,-2.0703 -4.3504,-3.4967 -4.8792,-3.1699 -0.6061,0.3746 -0.5807,1.0532 0.069,1.8355 0.7142,0.8606 0.5635,3.4793 -0.4914,8.5388 -1.9851,9.5205 -3.946,14.1693 -5.6938,13.4986 -1.2244,-0.4698 -8.7743,8.401 -10.0578,11.8174 -0.3233,0.8606 -0.8672,0.7055 -1.8253,-0.5207 -1.1733,-1.5016 -1.918,-1.5926 -5.3106,-0.6489 -4.551,1.266 -8.4772,3.8506 -8.5227,5.6103 -0.037,1.4123 -3.7059,3.6044 -4.8498,2.8974 -1.084,-0.6699 -2.435,0.4276 -4.4778,3.6378 -0.9624,1.5125 -2.3941,2.75 -3.1815,2.75 -1.6427,0 -2.2353,-2.9747 -2.8888,-14.5 -0.4481,-7.9025 -5.1414,-25.0776 -9.6183,-35.1985 l -1.9326,-4.3689 -4.7913,0.5998 c -2.6352,0.3298 -5.6913,0.8399 -6.7913,1.1336 -4.076,1.0879 -22.1388,9.6863 -26.1802,12.4625 -2.2991,1.5793 -4.6616,2.8715 -5.25,2.8715 -0.5884,0 -1.0698,0.3464 -1.0698,0.7697 0,0.4234 -2.3024,2.5609 -5.1164,4.75 -17.2755,13.4393 -32.7132,33.1373 -47.3996,60.4803 -8.6366,16.0796 -8.9187,16.4945 -17.5257,25.7849 -6.7216,7.2553 -11.1139,14.0827 -11.638,18.09 -1.2861,9.8336 -1.6652,11.6897 -2.4947,12.2168 -0.5121,0.3254 -1.101,1.9004 -1.3085,3.5 -0.7169,5.5252 -2.4472,12.0449 -3.9733,14.9715 -1.9729,3.7832 -1.9592,8.7328 0.035,12.5885 1.4732,2.8487 1.4511,3.1957 -0.3301,5.2004 -1.0497,1.1813 -2.4789,4.1468 -3.1761,6.5899 -1.0701,3.7499 -1.0435,4.6069 0.1704,5.5 0.8921,0.6564 1.895,4.6314 2.642,10.471 0.6621,5.1771 2.1463,12.1521 3.2981,15.5 1.1518,3.3479 2.8817,9.912 3.8443,14.587 1.4972,7.2716 1.5494,8.7282 0.3615,10.0788 -0.9088,1.0333 -1.3885,4.056 -1.3885,8.75 0,5.8379 -0.3719,7.5431 -2,9.1712 -2.9712,2.9712 -2.5397,7.0683 1.1408,10.8329 3.5305,3.611 4.559,3.5581 11.8592,-0.6097 z m 113.5128,-152.2025 c -0.9837,-1.5917 1.3979,-5.0207 3.4872,-5.0207 2.0892,0 4.4709,3.429 3.4872,5.0207 -0.3329,0.5386 -1.9021,0.9793 -3.4872,0.9793 -1.5851,0 -3.1543,-0.4407 -3.4872,-0.9793 z m 36.1539,-57.6873 c -1.3648,-1.3648 -0.5995,-4.299 1.4003,-5.3693 1.608,-0.8605 2.6075,-0.7521 4.5,0.4879 2.7347,1.7918 2.9677,2.6133 1.233,4.348 -1.2834,1.2834 -6.0285,1.6382 -7.1333,0.5334 z m 14.3333,-14.7264 c 0,-1.405 2.8758,-3.0645 3.7667,-2.1736 0.2642,0.2642 0.2139,1.1748 -0.1118,2.0235 -0.7378,1.9226 -3.6549,2.0425 -3.6549,0.1501 z m -36,184.6534 c 4.125,-2.2245 9.1133,-4.5534 11.085,-5.1755 5.8234,-1.8373 8.2455,-5.4857 12.3383,-18.5849 2.0621,-6.6 6.4665,-19.2 9.7875,-28 8.8091,-23.3429 8.8778,-23.5476 8.243,-24.5746 -0.3201,-0.518 -3.5146,1.546 -7.0989,4.5868 -3.5843,3.0407 -7.9429,6.1401 -9.6859,6.8874 -7.2552,3.1107 -17.0256,9.6577 -18.8228,12.6129 -1.052,1.7298 -2.5341,5.4722 -3.2937,8.3164 -1.5397,5.7653 -5.097,15.2682 -8.924,23.8391 -3.039,6.8062 -7.0545,23.2795 -6.2106,25.4786 0.533,1.3891 0.8606,1.4023 2.8423,0.1142 1.2319,-0.8008 5.6148,-3.2759 9.7398,-5.5004 z m -440,-23.2604 c 0,-0.55 -0.45,-1 -1,-1 -0.55,0 -1,0.45 -1,1 0,0.55 0.45,1 1,1 0.55,0 1,-0.45 1,-1 z m -412.6724,-8.5106 c 0.4552,-2.1942 1.6692,-5.7894 2.6978,-7.9894 1.7082,-3.6535 2.3542,-7.7112 2.0696,-13 -0.059,-1.1 -1.4137,-2.7429 -3.0099,-3.651 -2.3708,-1.3487 -3.1229,-2.7219 -4.1078,-7.5 -1.3783,-6.6872 -2.8114,-9.8099 -6.5299,-14.2291 l -2.6252,-3.1199 h 4.0889 c 5.1018,0 5.238,-1.1847 0.3389,-2.9478 -2.0625,-0.7423 -5.1,-2.3625 -6.75,-3.6003 -1.65,-1.2379 -5.1375,-3.2455 -7.75,-4.4614 -4.5297,-2.1082 -6.1818,-3.9914 -3.5,-3.9897 2.0766,0 15.4322,2.9279 18.2486,3.9987 3.9849,1.515 4.2017,1.3518 4.7578,-3.5819 0.3983,-3.534 1.2298,-5.1926 3.6342,-7.25 3.3538,-2.8697 6.5464,-10.6755 8.2292,-20.1201 1.1237,-6.3069 2.4442,-8.3206 4.9372,-7.5294 2.6314,0.8352 3.1005,-0.8201 1.51,-5.3282 -2.1192,-6.0063 -2.9543,-12.8325 -1.6672,-13.6279 1.6411,-1.0143 5.2466,3.4202 10.0758,12.3928 2.3816,4.4249 4.5989,8.0418 4.9273,8.0376 0.5609,-0.01 2.7844,-7.2204 7.2415,-23.4924 1.0545,-3.85 2.1837,-11.275 2.5093,-16.5 0.3256,-5.225 1.4367,-12.0733 2.4691,-15.2184 1.0325,-3.1452 1.8772,-6.8705 1.8772,-8.2786 0,-5.2184 5.5859,-13.968 13.003,-20.3676 3.911,-3.3745 7.9615,-6.1354 9.001,-6.1354 1.0396,0 3.9852,-1.1139 6.5458,-2.4754 2.5605,-1.3615 7.8718,-3.4416 11.8029,-4.6226 3.931,-1.1811 8.2678,-2.5818 9.6373,-3.1126 2.449,-0.9494 2.4572,-0.9899 0.5,-2.4576 -1.5396,-1.1545 -3.5464,-1.3444 -8.8671,-0.839 -3.7824,0.3593 -8.0399,1.0953 -9.461,1.6357 -3.6199,1.3763 -7.065,0.2564 -8.1725,-2.6565 -1.0784,-2.8362 -1.9839,-2.966 -7.4422,-1.0662 -4.5495,1.5834 -6.145,1.2401 -6.855,-1.4751 -0.603,-2.3056 -3.4225,-2.4881 -8.1193,-0.5257 -1.9509,0.8152 -3.7344,1.0334 -4.2479,0.5199 -0.5135,-0.5135 -4.6511,-0.4559 -9.8551,0.1373 -8.9816,1.0237 -13.4699,0.6893 -13.4699,-1.0035 0,-0.4968 2.1375,-2.7353 4.75,-4.9745 2.6125,-2.2393 4.1358,-4.0743 3.385,-4.0778 -2.8103,-0.013 -20.8226,5.2977 -25.65,7.5631 -6.9694,3.2704 -13.3258,5.4304 -15.9808,5.4304 -1.8366,0 -2.4696,0.8628 -3.4847,4.75 -0.6823,2.6126 -2.579,9.4751 -4.2149,15.2501 -3.88,13.6973 -4.3349,20.1004 -2.4001,33.7844 2.1549,15.2412 2.0365,18.4118 -0.9045,24.2156 -2.4518,4.8385 -2.5,5.3779 -2.5,28.002 0,19.5512 0.2462,23.4442 1.615,25.5332 0.9919,1.5138 1.1848,2.4648 0.5,2.4648 -0.6133,0 -1.115,-0.675 -1.115,-1.5 0,-0.825 -0.3832,-1.5 -0.8515,-1.5 -1.6252,0 -3.9299,44.4809 -2.4106,46.5259 0.4191,0.5642 2.711,2.5434 5.0931,4.3981 2.382,1.8548 5.3622,4.9932 6.6226,6.9742 1.2604,1.981 4.2929,5.7393 6.7389,8.3518 l 4.4473,4.75 h -3.0199 c -4.1301,0 -2.2364,1.5772 3.3801,2.8152 6.6072,1.4563 7.4013,1.1392 8.3276,-3.3258 z m 566.6724,-32.4936 c 3.575,-0.014 6.9948,-0.357 7.5997,-0.7611 0.7001,-0.4678 1.3354,-8.0004 1.7487,-20.7347 0.3569,-11 1.2984,-28.9886 2.0922,-39.9748 0.7937,-10.9861 1.286,-20.1319 1.094,-20.324 -0.5329,-0.5328 -9.0449,15.4592 -12.1352,22.7988 -1.5052,3.575 -3.1108,6.9275 -3.5681,7.45 -0.4572,0.5225 -0.8313,1.5577 -0.8313,2.3003 0,1.2982 -11.4413,26.6962 -19.884,44.1398 -2.2335,4.6146 -3.8673,8.7034 -3.6306,9.0863 0.2366,0.3829 5.0617,-0.3502 10.7224,-1.629 5.6607,-1.2788 13.2172,-2.337 16.7922,-2.3516 z m -674.5,1.5286 c 4.95,-0.756 11.7,-1.7458 15,-2.1995 l 6,-0.8249 0.654,-17.5 c 0.5794,-15.5046 2.7151,-43.2889 4.5352,-59 0.5788,-4.9964 0.4885,-5.3773 -0.9864,-4.1605 -2.215,1.8276 -14.0213,27.0296 -24.4275,52.1433 -1.9332,4.6656 -5.2768,12.1914 -7.4303,16.724 -3.4954,7.3572 -6.845,15.6936 -6.845,17.0356 0,0.27 1.0125,0.1906 2.25,-0.1763 1.2375,-0.367 6.3,-1.2858 11.25,-2.0417 z m 1056.5,-20.0834 c 0,-0.8575 -0.4573,-1.2764 -1.0163,-0.9309 -0.559,0.3455 -0.7574,1.047 -0.441,1.559 0.8572,1.3871 1.4573,1.1284 1.4573,-0.6281 z m -839,-22.1605 c 7.511,-2.4939 25.6336,-12.1675 33.7993,-18.0417 4.2354,-3.0468 10.6257,-7.3324 14.2007,-9.5235 13.6789,-8.3836 20.7982,-14.1152 23.8675,-19.2153 5.5688,-9.2532 8.9175,-19.3712 9.3889,-28.3684 0.8733,-16.6669 -2.9019,-29.903 -11.2263,-39.36 -4.0424,-4.5925 -15.5912,-12.7717 -18.0332,-12.7717 -0.7501,0 -4.0751,-0.9626 -7.389,-2.1392 -5.2606,-1.8677 -7.3326,-2.0592 -16.3275,-1.5088 -5.6663,0.3467 -11.8374,1.2717 -13.7136,2.0556 -5.8441,2.4419 -6.4158,4.3204 -6.3688,20.9282 l 0.042,14.8357 -3.8028,8.6643 c -2.0915,4.7654 -4.6444,9.8925 -5.6732,11.3935 -3.4924,5.0955 -7.4911,15.25 -8.1793,20.7708 -1.3762,11.0396 -10.9047,40.0876 -15.2441,46.4725 -0.7373,1.0849 -1.3406,2.9888 -1.3406,4.231 0,2.2452 0.6295,2.5748 7,3.6641 3.9161,0.6697 14.0498,-0.4435 19,-2.0871 z m 237.5558,196.8098 c -0.9647,-1.5609 0.616,-4.2037 2.32,-3.8792 0.8933,0.1702 1.768,1.3173 1.9437,2.5491 0.2402,1.683 -0.1802,2.2398 -1.6909,2.2398 -1.1058,0 -2.2636,-0.4094 -2.5728,-0.9097 z m 27.6942,-2.7526 c -0.6875,-0.2774 -1.25,-1.7687 -1.25,-3.314 0,-2.8543 1.4768,-4.0237 5.0818,-4.0237 2.6912,0 2.6785,5.5227 -0.016,6.9648 -1.0638,0.5694 -2.0763,0.9997 -2.25,0.9563 -0.1736,-0.043 -0.8782,-0.3059 -1.5657,-0.5834 z m -24.0664,-21.9982 c 0.3143,-2.6431 3.2117,-4.1269 4.377,-2.2415 1.0659,1.7248 -0.6804,4.902 -2.6944,4.902 -1.5771,0 -1.9323,-0.5615 -1.6826,-2.6605 z m -579.1628,-221.8144 c -1.662,-2.0025 -0.5761,-4.5251 1.9478,-4.5251 2.3678,0 2.7921,3.1238 0.6641,4.8899 -1.0395,0.8627 -1.6657,0.7752 -2.6119,-0.3648 z m 562.9792,-103.3601 c 0,-1.8558 1.2067,-4.1651 2.1765,-4.1651 1.3905,0 0.5593,4.2657 -0.9265,4.755 -0.6875,0.2264 -1.25,-0.039 -1.25,-0.5899 z m -36.6413,-9.6728 c -0.3183,-0.8292 0.176,-2.6594 1.0982,-4.0669 1.3514,-2.0624 1.9551,-2.3283 3.11,-1.3699 0.7882,0.6542 1.4331,2.4843 1.4331,4.067 0,2.4122 -0.4093,2.8775 -2.5314,2.8775 -1.3923,0 -2.7917,-0.6785 -3.1099,-1.5077 z m 55.6413,-6.9923 c 0,-0.825 0.675,-1.5 1.5,-1.5 0.825,0 1.5,0.675 1.5,1.5 0,0.825 -0.675,1.5 -1.5,1.5 -0.825,0 -1.5,-0.675 -1.5,-1.5 z m -28.3333,-2.1666 c -1.2147,-1.2147 -0.691,-2.2799 0.8333,-1.695 0.825,0.3166 1.5,0.9775 1.5,1.4686 0,1.0484 -1.3776,1.1821 -2.3333,0.2264 z m -3.3025,-5.8267 c -0.3464,-0.9026 -0.1503,-2.1206 0.4358,-2.7067 1.5236,-1.5236 4.4104,-0.1311 4.0124,1.9355 -0.4433,2.3019 -3.6477,2.8574 -4.4482,0.7712 z m 656.1877,-0.4224 c -0.9708,-1.5706 1.2347,-5.8814 3.353,-6.5537 4.3295,-1.3741 7.9288,3.2361 4.8951,6.2698 -1.4073,1.4073 -7.4258,1.6145 -8.2481,0.2839 z m 26.7839,-9.6511 c -0.9069,-2.3633 1.221,-4.0455 3.1218,-2.468 0.8483,0.7041 1.5424,1.9 1.5424,2.6577 0,1.9007 -3.9233,1.7411 -4.6642,-0.1897 z m -390.5858,-36.5061 c -2.3667,-1.3877 -2.2094,-5.2009 0.3085,-7.4797 1.5768,-1.4269 2.4544,-1.6136 3.75,-0.7978 2.5512,1.6066 2.5487,3.8332 -0.01,6.712 -1.8187,2.0483 -2.668,2.3765 -4.0511,1.5655 z m 22.25,-19.3677 c 0,-3.0553 1.3887,-4.0005 3.0091,-2.048 0.9814,1.1826 0.9796,1.7977 -0.01,2.989 -1.8266,2.201 -3,1.8329 -3,-0.941 z"
         style="fill:#f34b00;fill-opacity:1"
         id="path1-1"
         sodipodi:nodetypes="csssscssssscssssssssssssscssscssssssscssssssssssssssssssssssssssscscsscsssssssssssssssssssssssssssssscsssscsssssssssssssssssssssssssscsssssssssssssssssssssssssssscssssssssssssssssssssssscsssssssssssssssssssssssssssssssssssssssssssssssssssscsssssssssssssscsssssssssssssssssssssssssssssssssssssssssssssssssssssssssssssssssssssssscsssssscccssssssssssssssssssssssssssssssssssssssssssssssssssssssscssssssssscsssscsssscsssssssscsssssscssssssssssssssssssssscssssscssssssssscssscssssscsssssssssssssssssssssssssssssssssscccssssssssssssssscssssssssssssssscssssssssssssssssssssscssssscssssscscsssssssssssssssssssssccsssssssssssssssssssssssssssssssssssssscsssscsssssssscssssssssssscsssssssssssssssssssssssscssscsssssssssscsscssssssssssssssssssssssscsssssssssssssssscssssssssssssssssssssssssssssssssssssssssscssccccsccc" /><path
         d="m 1380.8903,1142.2462 c 0,-2.5915 0.6495,-4.5024 1.9218,-5.6538 1.8394,-1.6647 1.9928,-1.6308 3.5801,0.7917 1.4336,2.1881 1.4768,2.9108 0.3188,5.3342 -0.7633,1.5975 -2.3032,2.9408 -3.5801,3.1229 -1.9937,0.2843 -2.2406,-0.1119 -2.2406,-3.595 z m 3.6831,-4.4121 c -0.3192,-0.7977 -0.5562,-0.5608 -0.6042,0.6042 -0.043,1.0542 0.193,1.6448 0.5253,1.3125 0.3323,-0.3323 0.3678,-1.1948 0.079,-1.9167 z m 20.7104,-10.2293 c -0.9177,-2.3915 0.2936,-4.6405 2.1215,-3.939 1.8256,0.7005 1.6297,4.4869 -0.2645,5.1107 -0.6872,0.2263 -1.5228,-0.301 -1.857,-1.1717 z"
         id="path1-8"
         style="fill:#f34b00;fill-opacity:1" /></g></g></svg>
